<?xml version="1.0" standalone="no"?>
<!DOCTYPE svg PUBLIC "-//W3C//DTD SVG 1.1//EN" "http://www.w3.org/Graphics/SVG/1.1/DTD/svg11.dtd">
<svg width="118" height="90" viewBox="-59 -45 118 90" xmlns="http://www.w3.org/2000/svg" version="1.1">
<title>OpenSCAD Model</title>
<path d="
M 7.5,40 L 2.30383,37 L 7.5,34 L 2.30383,31 L 7.5,28 L 2.30383,25
 L 7.5,22 L 3.98935,19.9731 L 11.1246,19.1259 L 18,17.4159 L 24.0887,14.9448 L 27,13.1386
 L 27,-5.5 L 29,-5.5 L 29,11.8978 L 29.1246,11.8204 L 32.8876,8.17953 L 34.6465,5.15564
 L 36,7.5 L 39,2.30383 L 42,7.5 L 45,2.30383 L 48,7.5 L 51,2.30383
 L 54,7.5 L 58.3301,-0 L 54,-7.5 L 51,-2.30383 L 48,-7.5 L 45,-2.30383
 L 42,-7.5 L 39,-2.30383 L 36,-7.5 L 34.6465,-5.15564 L 32.8876,-8.17953 L 29.1246,-11.8204
 L 24.0887,-14.9448 L 18,-17.4159 L 11.1246,-19.1259 L 3.98935,-19.9731 L 7.5,-22 L 2.30383,-25
 L 7.5,-28 L 2.30383,-31 L 7.5,-34 L 2.30383,-37 L 7.5,-40 L 0,-44.3301
 L -7.5,-40 L -2.30383,-37 L -7.5,-34 L -2.30383,-31 L -7.5,-28 L -2.30383,-25
 L -7.5,-22 L -3.98935,-19.9731 L -11.1246,-19.1259 L -18,-17.4159 L -24.0887,-14.9448 L -27,-13.1386
 L -27,5.5 L -29,5.5 L -29,-11.8978 L -29.1246,-11.8204 L -32.8876,-8.17953 L -34.6465,-5.15564
 L -36,-7.5 L -39,-2.30383 L -42,-7.5 L -45,-2.30383 L -48,-7.5 L -51,-2.30383
 L -54,-7.5 L -58.3301,-0 L -54,7.5 L -51,2.30383 L -48,7.5 L -45,2.30383
 L -42,7.5 L -39,2.30383 L -36,7.5 L -34.6465,5.15564 L -32.8876,8.17953 L -29.1246,11.8204
 L -24.0887,14.9448 L -18,17.4159 L -11.1246,19.1259 L -3.98935,19.9731 L -7.5,22 L -2.30383,25
 L -7.5,28 L -2.30383,31 L -7.5,34 L -2.30383,37 L -7.5,40 L 0,44.3301
 z
" stroke="black" fill="lightgray" stroke-width="0.5"/></svg>
